<svg width="40" height="40" viewBox="0 0 40 40" fill="none" xmlns="http://www.w3.org/2000/svg">
<path fill-rule="evenodd" clip-rule="evenodd" d="M8 32V20.2661L9.8385 18.6432C11.0608 17.5296 12.8423 17.2829 14.3212 18.0223L18.7151 20.2208C20.0379 20.7877 20.6506 22.3196 20.0837 23.6423C19.9913 23.858 19.8722 24.0561 19.7316 24.2337L23.1628 24.9204L32.9962 21.8762C34.5706 21.4153 36.2205 22.3179 36.6814 23.8923C36.9217 24.713 36.7966 25.5975 36.3381 26.3194C35.9684 26.9014 35.6542 27.3043 35.3611 27.5485C34.7391 28.0665 31.9454 30.7917 25.7142 34.5966C24.6826 35.2266 23.4214 35.3562 22.2832 34.9494L14.0318 32H8Z" fill="#1565D8"/>
<path opacity="0.3" fill-rule="evenodd" clip-rule="evenodd" d="M20.8 15.2C20.8 19.2023 22.7744 20.8 26.4 20.8C30.0256 20.8 32 19.2023 32 15.2C32 12.32 30.3204 8.96087 27.0085 5.08068C26.6891 4.70651 26.1109 4.70651 25.7915 5.08068C22.4796 8.96087 20.8 12.32 20.8 15.2ZM5.22187 18H5.62187V33.2001H5.22187C4.55913 33.2001 4.02187 33.7373 4.02187 34.4C4.02187 35.0628 4.55913 35.6 5.22187 35.6H6.82187C7.48462 35.6 8.02187 35.0628 8.02187 34.4V16.8C8.02187 16.1373 7.48462 15.6 6.82187 15.6H5.22187C4.55913 15.6 4.02187 16.1373 4.02187 16.8C4.02187 17.4628 4.55913 18 5.22187 18Z" fill="#1565D8"/>
</svg>
