<svg width="28" height="28" viewBox="0 0 28 28" fill="none" xmlns="http://www.w3.org/2000/svg">
<path fill-rule="evenodd" clip-rule="evenodd" d="M24.2702 5.91328L14.1902 2.27328C14.0673 2.22889 13.9327 2.22889 13.8098 2.27328L3.7298 5.91328C3.50788 5.99342 3.36 6.20405 3.36 6.43999V14C3.36 19.9366 6.9055 23.8761 13.8549 25.7409C13.9512 25.7667 14.0527 25.7664 14.1488 25.7399C21.0959 23.8248 24.64 19.8869 24.64 14V6.43999C24.64 6.20405 24.4921 5.99342 24.2702 5.91328ZM10.134 13.0204C10.358 12.8072 10.7125 12.816 10.9257 13.0401L13.1911 15.4208L17.9483 10.2604C18.1579 10.033 18.5122 10.0186 18.7396 10.2283C18.967 10.4379 18.9814 10.7922 18.7717 11.0196L13.6093 16.6196C13.3899 16.8576 13.015 16.8605 12.7919 16.626L10.1143 13.8121C9.90112 13.5881 9.90992 13.2336 10.134 13.0204Z" fill="#1565D8"/>
</svg>
