<svg width="40" height="40" viewBox="0 0 40 40" fill="none" xmlns="http://www.w3.org/2000/svg">
<path opacity="0.3" fill-rule="evenodd" clip-rule="evenodd" d="M19.36 27.2C17.5043 27.2 16 28.7043 16 30.56V35.68C16 36.2985 16.5014 36.8 17.12 36.8H22.88C23.4986 36.8 24 36.2985 24 35.68V30.56C24 28.7043 22.4957 27.2 20.64 27.2H19.36Z" fill="#1565D8"/>
<path fill-rule="evenodd" clip-rule="evenodd" d="M25.6 35.8117V30.5411C25.6 27.8122 23.1054 25.6 20.3765 25.6H19.6235C16.8946 25.6 14.4 27.8122 14.4 30.5411V35.8117C14.4 36.1582 14.4595 36.4909 14.5687 36.7999H12.0941C9.3652 36.7999 7.15296 34.5877 7.15296 31.8588V16.7425L4.83902 18.7672C4.42827 19.1266 3.80394 19.085 3.44454 18.6742C3.08513 18.2635 3.12676 17.6392 3.5375 17.2798L19.3493 3.44446C19.7218 3.11845 20.2782 3.11845 20.6508 3.44446L36.4625 17.2798C36.8733 17.6392 36.9149 18.2635 36.5555 18.6742C36.1961 19.085 35.5718 19.1266 35.161 18.7672L32.8471 16.7425V31.8588C32.8471 34.5877 30.6348 36.7999 27.9059 36.7999H25.4313C25.5406 36.4909 25.6 36.1582 25.6 35.8117Z" fill="#1565D8"/>
</svg>
