<svg width="28" height="28" viewBox="0 0 28 28" fill="none" xmlns="http://www.w3.org/2000/svg">
<path fill-rule="evenodd" clip-rule="evenodd" d="M14.8838 16.1576C15.5804 14.6441 14.9384 13.3972 13.1649 12.6249L10.2267 11.4117C9.27481 11.0187 8.18412 11.1806 7.38729 11.8333L4.68517 14.0467L4.60658 14.8347L4.48 21.28V22.4H7.74927L14.4168 24.2945C15.2579 24.5335 16.1624 24.3653 16.8615 23.8398C21.2547 20.5376 24.1901 18.3078 24.6347 17.8945C25.7123 16.8924 26.1366 15.7783 25.3687 14.6801C24.7481 13.7924 23.7013 13.6977 22.404 14.285L16.0941 17.4942L14.3199 16.93C14.5486 16.7327 14.7373 16.4759 14.8838 16.1576Z" fill="#1565D8"/>
<path opacity="0.3" fill-rule="evenodd" clip-rule="evenodd" d="M20.9475 4.48121H19.6V4.2006C19.6 3.73641 19.224 3.35999 18.76 3.35999C18.296 3.35999 17.92 3.73641 17.92 4.2006V4.48121H17.6556C16.5731 4.48121 15.6956 5.35963 15.6956 6.44305V7.00452C15.6956 8.08794 16.5731 8.96636 17.6556 8.96636H19.88C20.0346 8.96636 20.16 9.09192 20.16 9.24697V9.80674C20.16 9.96178 20.0346 10.0874 19.88 10.0874H17.3099C17.1855 9.79244 16.8981 9.58405 16.5612 9.5738C16.0974 9.55968 15.7101 9.9245 15.696 10.3885L15.6804 10.9024C15.666 11.3764 16.046 11.7686 16.52 11.7686H17.92V12.0394C17.92 12.5036 18.296 12.88 18.76 12.88C19.224 12.88 19.6 12.5036 19.6 12.0394V11.7686H19.88C20.9626 11.7686 21.84 10.8902 21.84 9.80674V9.24697C21.84 8.16355 20.9626 7.28513 19.88 7.28513H17.6556C17.5011 7.28513 17.3756 7.15956 17.3756 7.00452V6.44305C17.3756 6.28801 17.5011 6.16244 17.6556 6.16244H20.2174C20.3634 6.41868 20.6385 6.58687 20.9475 6.58687C21.4115 6.58687 21.7875 6.21045 21.7875 5.74626V5.32183C21.7875 4.85764 21.4115 4.48121 20.9475 4.48121ZM3.92 12.6H4.2V23.24H3.92C3.45608 23.24 3.08 23.6161 3.08 24.08C3.08 24.5439 3.45608 24.92 3.92 24.92H5.04C5.50392 24.92 5.88 24.5439 5.88 24.08V11.76C5.88 11.2961 5.50392 10.92 5.04 10.92H3.92C3.45608 10.92 3.08 11.2961 3.08 11.76C3.08 12.2239 3.45608 12.6 3.92 12.6Z" fill="#1565D8"/>
</svg>
