<svg width="32" height="32" viewBox="0 0 32 32" fill="none" xmlns="http://www.w3.org/2000/svg">
<path opacity="0.3" fill-rule="evenodd" clip-rule="evenodd" d="M21.44 7.36006C21.44 5.76948 20.1506 4.48006 18.56 4.48006H13.44C11.8494 4.48006 10.56 5.76948 10.56 7.36006V8.96006H21.44V7.36006ZM13.44 2.56006H18.56C21.211 2.56006 23.36 4.70909 23.36 7.36006V10.8801H8.64001V7.36006C8.64001 4.70909 10.789 2.56006 13.44 2.56006Z" fill="#1565D8"/>
<path fill-rule="evenodd" clip-rule="evenodd" d="M16 19.2C16.8122 19.2 17.5066 19.7042 17.7871 20.4168C21.8602 20.1259 25.6515 18.8309 29.1511 16.5351C29.3314 16.4168 29.44 16.2156 29.44 16V13.44C29.44 10.9657 27.4342 8.95996 24.96 8.95996H7.04C4.56576 8.95996 2.56 10.9657 2.56 13.44V16C2.56 16.2156 2.66862 16.4168 2.84894 16.5351C6.34854 18.8309 10.1398 20.1259 14.2128 20.4168C14.4934 19.7042 15.1878 19.2 16 19.2ZM16 23.04C15.1406 23.04 14.4131 22.4753 14.1682 21.6968C10.1787 21.4191 6.43886 20.2264 2.97269 18.1263L4.51517 25.8387C4.93398 27.9327 6.77264 29.4401 8.90817 29.4401H23.0921C25.2276 29.4401 27.0663 27.9327 27.4851 25.8387L29.0276 18.1261C25.5613 20.2263 21.8214 21.4191 17.8318 21.6968C17.5869 22.4753 16.8594 23.04 16 23.04Z" fill="#1565D8"/>
</svg>
