<svg width="40" height="40" viewBox="0 0 40 40" fill="none" xmlns="http://www.w3.org/2000/svg">
<path fill-rule="evenodd" clip-rule="evenodd" d="M24.0567 28.8H15.9433C15.5551 26.0862 13.2212 24 10.4 24C7.6177 24 5.30931 26.0291 4.87387 28.6882C3.90334 28.3805 3.20001 27.4724 3.20001 26.4V20.3777C3.20001 18.8626 4.05602 17.4776 5.41116 16.8L6.65839 16H28.453L33.5845 17.101C34.8147 17.3471 35.8181 18.1419 36.3605 19.2H34.4C33.0745 19.2 32 20.2745 32 21.6C32 22.9255 33.0745 24 34.4 24H36.8V26.4C36.8 27.4724 36.0967 28.3805 35.1262 28.6882C34.6907 26.0291 32.3823 24 29.6 24C26.7788 24 24.4449 26.0862 24.0567 28.8ZM27.493 14.4H17.6V8H21.3882C22.7933 8 24.0953 8.7372 24.8182 9.94202L27.493 14.4ZM7.29839 14.4L8.85261 10.5144C9.46006 8.9958 10.9309 8 12.5665 8H16V14.4H7.29839ZM36.8 21.0234V22.4H34.4C33.9582 22.4 33.6 22.0418 33.6 21.6C33.6 21.1582 33.9582 20.8 34.4 20.8H36.7938C36.7979 20.874 36.8 20.9485 36.8 21.0234ZM20 20.8H21.6C22.0418 20.8 22.4 20.4418 22.4 20C22.4 19.5582 22.0418 19.2 21.6 19.2H20C19.5582 19.2 19.2 19.5582 19.2 20C19.2 20.4418 19.5582 20.8 20 20.8Z" fill="#1565D8"/>
<path opacity="0.3" fill-rule="evenodd" clip-rule="evenodd" d="M29.6 33.6C27.3909 33.6 25.6 31.8091 25.6 29.6C25.6 27.3908 27.3909 25.6 29.6 25.6C31.8091 25.6 33.6 27.3908 33.6 29.6C33.6 31.8091 31.8091 33.6 29.6 33.6Z" fill="#1565D8"/>
<path opacity="0.3" fill-rule="evenodd" clip-rule="evenodd" d="M10.4 33.6C8.19085 33.6 6.39999 31.8091 6.39999 29.6C6.39999 27.3908 8.19085 25.6 10.4 25.6C12.6091 25.6 14.4 27.3908 14.4 29.6C14.4 31.8091 12.6091 33.6 10.4 33.6Z" fill="#1565D8"/>
</svg>
