<svg width="32" height="32" viewBox="0 0 32 32" fill="none" xmlns="http://www.w3.org/2000/svg">
<path fill-rule="evenodd" clip-rule="evenodd" d="M8.42698 11.3525C14.0972 12.1527 18.5322 10.086 21.6206 5.18011C21.6361 5.15552 21.6503 5.1303 21.6631 5.10457C22.8517 6.44201 23.5736 8.20339 23.5736 10.1334V12.9067C23.5736 15.7096 22.0367 18.2294 19.6542 19.5421C19.3437 19.3265 18.9666 19.2001 18.56 19.2001C17.4996 19.2001 16.64 20.0597 16.64 21.1201C16.64 22.1804 17.4996 23.0401 18.56 23.0401C19.097 23.0401 19.5826 22.8196 19.931 22.4642C19.4118 24.0952 17.8482 25.2801 16 25.2801C13.7295 25.2801 11.8885 23.4919 11.8857 21.2851L12.4928 19.6207C10.027 18.3318 8.42698 15.7666 8.42698 12.9067V11.3525ZM8.44199 9.65271C8.68994 5.69403 11.9791 2.56006 16.0003 2.56006C17.6951 2.56006 19.2599 3.11678 20.5218 4.05731C20.483 4.09719 20.4474 4.14238 20.4157 4.19271C17.6361 8.60794 13.7075 10.4207 8.51643 9.65937C8.49146 9.6557 8.46663 9.6535 8.44199 9.65271ZM10.3048 22.1229C10.7229 24.8158 13.1135 26.8801 16 26.8801C18.8871 26.8801 21.2781 24.815 21.6954 22.1212L24.7645 22.7401C25.9836 22.9779 26.9549 23.8997 27.2562 25.1048L28.1412 28.6448C28.2422 29.0488 27.9367 29.4401 27.5203 29.4401H4.48032C4.06395 29.4401 3.75844 29.0488 3.85942 28.6448L4.7433 25.1093C5.04529 23.9014 6.02056 22.9783 7.23712 22.7443L10.3048 22.1229Z" fill="#1565D8"/>
<path opacity="0.3" fill-rule="evenodd" clip-rule="evenodd" d="M18.56 21.76C18.9135 21.76 19.2 21.4734 19.2 21.12C19.2 20.7665 18.9135 20.48 18.56 20.48C18.2065 20.48 17.92 20.7665 17.92 21.12C17.92 21.4734 18.2065 21.76 18.56 21.76Z" fill="#1565D8"/>
<path opacity="0.3" fill-rule="evenodd" clip-rule="evenodd" d="M24.7766 8.95996H24.96C26.0204 8.95996 26.88 9.81957 26.88 10.88V13.44C26.88 14.5003 26.0204 15.36 24.96 15.36H24.5078C24.7341 14.5745 24.8536 13.7501 24.8536 12.9066V10.1333C24.8536 9.73551 24.8274 9.34385 24.7766 8.95996Z" fill="#1565D8"/>
<path opacity="0.3" fill-rule="evenodd" clip-rule="evenodd" d="M7.49288 15.36H7.04C5.97961 15.36 5.12 14.5003 5.12 13.44V10.88C5.12 9.81957 5.97961 8.95996 7.04 8.95996H7.22405C7.17321 9.34385 7.14698 9.73551 7.14698 10.1333V12.9066C7.14698 13.7501 7.26654 14.5745 7.49288 15.36Z" fill="#1565D8"/>
</svg>
