<svg width="32" height="32" viewBox="0 0 32 32" fill="none" xmlns="http://www.w3.org/2000/svg">
<path fill-rule="evenodd" clip-rule="evenodd" d="M26.896 17.9555C25.8897 12.7335 21.3197 8.95996 16.0016 8.95996C10.6836 8.95996 6.11351 12.7335 5.10729 17.9555L3.92092 24.1123C3.8671 24.3916 3.84 24.6755 3.84 24.96C3.84 27.4342 5.84576 29.44 8.32 29.44H23.6833C23.9677 29.44 24.2516 29.4129 24.5309 29.359C26.9605 28.8909 28.5505 26.5418 28.0823 24.1123L26.896 17.9555ZM18.56 15.36H16.64V14.72C16.64 14.3665 16.3535 14.08 16 14.08C15.6465 14.08 15.36 14.3665 15.36 14.72V15.36H14.7379C13.6775 15.36 12.8179 16.2196 12.8179 17.28V17.9209C12.8179 18.9813 13.6775 19.8409 14.7379 19.8409H17.28C17.6335 19.8409 17.92 20.1275 17.92 20.4809V21.12C17.92 21.4734 17.6335 21.76 17.28 21.76H14.0957C14.0693 21.4398 13.8061 21.1835 13.4773 21.1735C13.124 21.1628 12.8289 21.4405 12.8181 21.7938L12.8003 22.3805C12.7893 22.7414 13.0789 23.04 13.44 23.04H15.36V23.6687C15.36 24.0222 15.6465 24.3088 16 24.3088C16.3535 24.3088 16.64 24.0222 16.64 23.6687V23.04H17.28C18.3404 23.04 19.2 22.1803 19.2 21.12V20.4809C19.2 19.4205 18.3404 18.5609 17.28 18.5609H14.7379C14.3844 18.5609 14.0978 18.2744 14.0978 17.9209V17.28C14.0978 16.9265 14.3844 16.64 14.7379 16.64H17.939C18.0085 16.9183 18.2602 17.1245 18.56 17.1245C18.9135 17.1245 19.2 16.838 19.2 16.4845V16C19.2 15.6465 18.9135 15.36 18.56 15.36Z" fill="#1565D8"/>
<path opacity="0.3" fill-rule="evenodd" clip-rule="evenodd" d="M20.8962 8.68781C19.3873 8.03736 17.7299 7.68006 16.0016 7.68006C14.2733 7.68006 12.6158 8.0374 11.1068 8.68793L9.00723 3.43902C8.80497 2.93337 9.28648 2.42224 9.80328 2.59399L13.4031 3.79028L15.7142 2.62942C15.8941 2.53906 16.106 2.53861 16.2863 2.6282L18.6249 3.79042L22.1983 2.59442C22.7154 2.42137 23.1982 2.93278 22.9957 3.43902L20.8962 8.68781Z" fill="#1565D8"/>
</svg>
