<svg width="32" height="32" viewBox="0 0 32 32" fill="none" xmlns="http://www.w3.org/2000/svg">
<path opacity="0.3" fill-rule="evenodd" clip-rule="evenodd" d="M23.4708 2.97076C23.3468 2.81248 23.2014 2.67468 23.04 2.56006V8.28093C23.04 8.656 23.3522 8.96006 23.7373 8.96006H28.16L23.4708 2.97076ZM18.56 29.4401C20.3471 29.4401 21.8899 28.3936 22.6089 26.8801H13.44C10.2588 26.8801 7.68 24.3012 7.68 21.1201V7.04006C7.68 6.83781 7.69042 6.638 7.71076 6.44114C5.52471 6.73837 3.84 8.61247 3.84 10.8801V24.9601C3.84 27.4343 5.84576 29.4401 8.32 29.4401H18.56Z" fill="#1565D8"/>
<path fill-rule="evenodd" clip-rule="evenodd" d="M21.76 2.56006V8.32006C21.76 9.38045 22.6196 10.2401 23.68 10.2401H28.16V21.1201C28.16 23.5943 26.1542 25.6001 23.68 25.6001H13.44C10.9658 25.6001 8.95999 23.5943 8.95999 21.1201V7.04006C8.95999 4.56582 10.9658 2.56006 13.44 2.56006L21.76 2.56006Z" fill="#1565D8"/>
</svg>
