<svg width="34" height="34" viewBox="0 0 34 34" fill="none" xmlns="http://www.w3.org/2000/svg">
<path fill-rule="evenodd" clip-rule="evenodd" d="M22.6 32.8117V27.5411C22.6 24.8122 20.1054 22.6 17.3765 22.6H16.6235C13.8946 22.6 11.4 24.8122 11.4 27.5411V32.8117C11.4 33.1582 11.4595 33.4909 11.5687 33.7999H9.09414C6.3652 33.7999 4.15296 31.5877 4.15296 28.8588V13.7425L1.83902 15.7672C1.42827 16.1266 0.803941 16.085 0.444538 15.6742C0.0851348 15.2635 0.126757 14.6392 0.537503 14.2798L16.3493 0.444464C16.7218 0.118447 17.2782 0.118447 17.6508 0.444464L33.4625 14.2798C33.8733 14.6392 33.9149 15.2635 33.5555 15.6742C33.1961 16.085 32.5718 16.1266 32.161 15.7672L29.8471 13.7425V28.8588C29.8471 31.5877 27.6348 33.7999 24.9059 33.7999H22.4313C22.5406 33.4909 22.6 33.1582 22.6 32.8117Z" fill="#1565D8"/>
</svg>
